<?xml version="1.0" encoding="UTF-8"?>
<svg width="144px" height="65px" viewBox="0 0 144 65" version="1.1" xmlns="http://www.w3.org/2000/svg" xmlns:xlink="http://www.w3.org/1999/xlink">
    <!-- Generator: Sketch 48.2 (47327) - http://www.bohemiancoding.com/sketch -->
    <title>SQD</title>
    <desc>Created with Sketch.</desc>
    <defs>
        <polygon id="path-1" points="4.81163697e-15 64.9727657 4.81163697e-15 0.0230112453 143.786409 0.0230112453 143.786409 64.9727657 0 64.9727657"></polygon>
    </defs>
    <g id="Pack-Landing" stroke="none" stroke-width="1" fill="none" fill-rule="evenodd" transform="translate(-237.000000, -51.000000)">
        <g id="SQD" transform="translate(237.000000, 51.000000)">
            <g id="Group-3">
                <mask id="mask-2" fill="white">
                    <use xlink:href="#path-1"></use>
                </mask>
                <g id="Clip-2"></g>
                <path d="M139.708084,30.1192836 C138.925771,30.1192836 138.299369,29.504748 138.299369,28.7372553 C138.299369,27.9711162 138.925771,27.3565806 139.708084,27.3565806 C140.490396,27.3565806 141.116798,27.9711162 141.116798,28.7372553 C141.116798,29.504748 140.490396,30.1192836 139.708084,30.1192836 M4.38039938,37.4855893 C3.59808665,37.4855893 2.97306431,36.8724073 2.97306431,36.1049146 C2.97306431,35.3374219 3.59808665,34.7228863 4.38039938,34.7228863 C5.1627121,34.7228863 5.78911418,35.3374219 5.78911418,36.1049146 C5.78911418,36.7180966 5.31862275,37.4855893 4.38039938,37.4855893 M143.775558,28.4299875 C143.618267,25.8215952 141.897731,23.6720741 139.552173,22.7516243 L138.299369,2.64521033 C138.143458,1.11022491 136.892034,-0.117492711 135.170118,0.0354643898 L5.63182379,7.09585589 C4.06719834,7.2501666 2.81577392,8.47788421 2.81577392,10.1658267 L3.91128769,30.1192836 C1.56434951,31.3470012 -0.000275948052,33.8024365 -0.000275948052,36.5651395 C0.157014442,39.3278426 2.03346119,41.6303207 4.53631003,42.3978134 L5.63182379,62.3512703 C5.78911418,63.8849021 7.0405386,65.1139733 8.7610747,64.9596626 L138.61257,57.8992711 C140.177195,57.746314 141.42862,56.5185964 141.272709,54.8293003 L139.863994,34.7228863 C142.368223,33.4965223 143.932848,31.1926905 143.775558,28.4299875" id="Fill-1" fill="#E81C24" mask="url(#mask-2)"></path>
            </g>
            <path d="M117.92248,31.4515942 L116.977716,15.9566822 L113.038883,16.2624672 L113.983647,31.7587323 L117.92248,31.4515942 Z M125.010989,33.445962 L120.758161,37.7418357 L107.210523,38.5090043 L105.63499,10.2807168 L119.182628,9.51219512 L124.066225,13.3480383 L125.010989,33.445962 Z M96.0247942,28.6900577 L94.1338767,21.4797551 L93.1891127,28.8429503 L96.0247942,28.6900577 Z M105.476603,38.5090043 L98.5450912,38.9690349 L97.6003272,35.1331918 L92.4013462,35.4403298 L91.9289641,39.276173 L84.8390656,39.7362035 L88.9348957,11.2007779 L98.2297068,10.7393943 L105.476603,38.5090043 Z M82.9481482,35.5945754 L78.6953206,39.8890961 L69.715894,40.3504797 L64.8322974,36.5146365 L63.413762,12.4279771 L70.5036605,11.9679465 L71.763809,33.9059926 L75.7026415,33.5988545 L74.4411036,11.813701 L81.3740045,11.3536704 L82.9481482,35.5945754 Z M53.0157999,34.9802993 L52.0710359,19.4853873 L48.1322034,19.7911723 L49.0783568,35.2874373 L53.0157999,34.9802993 Z M62.1536134,40.8105102 L46.8720548,41.5776789 L41.9884583,37.7418357 L40.8853073,17.7968045 L45.1395243,13.5009308 L54.1189509,12.8880077 L59.0025474,16.7238508 L60.1056984,34.8274068 L58.3731679,36.667529 L61.9966159,36.360391 L62.1536134,40.8105102 Z M38.2080127,38.0489738 L33.9537958,42.3448475 L24.8173716,42.804878 L19.933775,38.9690349 L19.6183906,34.6731612 L26.7068997,34.2131306 L26.8652866,36.2074985 L30.8041191,35.9017134 L30.4887346,31.2987017 L24.0296051,31.7587323 L19.461393,27.9228891 L18.989011,18.8711112 L23.2418386,14.5752374 L32.2212652,14.1152069 L37.1048617,17.95105 L37.4202462,22.2469237 L30.3303477,22.7069543 L30.1733502,20.7125865 L26.2345177,21.0197245 L26.5499021,25.6213832 L32.6936472,25.0084602 L37.5772438,28.8429503 L38.2080127,38.0489738 Z" id="Fill-4" fill="#FFFFFF"></path>
            <path d="M114.833259,44.7558328 L116.083411,44.6059743 C117.803576,44.4574304 118.740846,43.8606255 118.740846,42.8181887 C118.740846,41.7744374 117.646446,41.327491 116.083411,41.4760349 C115.301894,41.4760349 114.833259,41.6258934 114.520376,41.6258934 L114.833259,44.7558328 Z M111.082803,40.1351957 C112.177203,39.8367932 113.895989,39.6882493 115.770528,39.6882493 C117.959328,39.5383908 119.678115,39.6882493 120.772515,40.2837396 C121.709785,40.730686 122.179798,41.4760349 122.33555,42.5197862 C122.491302,43.8606255 121.085398,44.9043768 119.833867,45.5011817 C120.928267,45.7982696 121.554032,46.5436185 122.022667,47.4388258 C122.491302,48.6311211 123.117067,50.1218189 123.428571,50.4202213 L119.833867,50.5687653 C119.522363,50.1218189 119.20948,49.37647 118.583715,48.0343162 C118.11508,46.693477 117.333563,46.3950745 115.927659,46.3950745 L114.833259,46.3950745 L115.146141,50.7173092 L111.707189,50.8671677 L111.082803,40.1351957 Z M104.049146,46.693477 L98.4227727,46.9918794 L98.5799032,49.6748724 L104.830664,49.2266115 L104.986416,51.3141141 L95.2967033,51.7610605 L94.6723164,40.5821421 L104.049146,40.1351957 L104.206277,42.2213838 L98.2670206,42.6683302 L98.4227727,44.9043768 L104.049146,44.6059743 L104.049146,46.693477 Z M76.0730304,41.7744374 L79.5119824,41.6258934 L79.824865,46.5436185 C80.1377476,46.0979866 80.4492519,45.6497257 80.7621345,45.3513232 L83.8882039,41.4760349 L88.107295,41.1776324 L83.4195692,46.0979866 L89.2016949,52.208007 L85.2941081,52.3578655 L81.2307692,47.8857723 L79.9806171,49.0780675 L80.2934997,52.8048119 L76.855926,52.9533558 L76.0730304,41.7744374 Z M69.8222698,52.9533558 C69.1965046,53.2517583 67.7906004,53.5501607 65.9146831,53.5501607 C60.601192,53.8485632 57.7880052,51.4639726 57.6322531,48.3327187 C57.3193705,44.6059743 60.9140747,42.2213838 65.6018005,42.0728398 C67.3219656,41.9229813 68.7278699,42.2213838 69.5093872,42.3712423 L69.0407525,44.4574304 C68.4149873,44.3088864 67.3219656,44.010484 66.0718135,44.1590279 C63.4143789,44.3088864 61.2255789,45.6497257 61.3827094,48.0343162 C61.5384615,50.2703628 63.4143789,51.6125166 66.3833178,51.4639726 C67.4777178,51.4639726 68.5721177,51.1642556 69.3536351,51.0157117 L69.8222698,52.9533558 Z M40.7517539,49.2266115 C40.9088844,51.3141141 42.3147886,52.9533558 44.6593407,52.8048119 C47.0038927,52.6549534 48.2540448,51.0157117 48.0982927,48.9295236 C47.9411622,46.8420209 46.6910101,45.2027792 44.1907059,45.3513232 C41.6904017,45.5011817 40.5960017,47.1404234 40.7517539,49.2266115 L40.7517539,49.2266115 Z M51.6929969,48.4812626 C52.0045011,52.208007 49.0355622,54.4440536 44.5035885,54.742456 C39.9716149,55.0408585 37.158428,52.6549534 37.0012976,49.37647 C36.8455454,46.0979866 39.6587323,43.413679 44.0349538,43.1152766 C48.7226796,43.1152766 51.3801143,45.5011817 51.6929969,48.4812626 L51.6929969,48.4812626 Z M22.1538462,44.6059743 L25.5927982,44.4574304 L26.0614329,53.4003022 L32.1564413,52.9533558 L32.3121934,55.0408585 L22.7796114,55.4878049 L22.1538462,44.6059743 Z" id="Fill-6" fill="#FFFFFF"></path>
            <path d="M123.07711,4.10190081 L123.07711,3.4802085 L126.677169,3.17073171 L126.677169,3.79105466 L123.07711,4.10190081 Z M116.032976,4.56748537 L116.032976,3.94716242 L119.633035,3.63631626 L119.633035,4.25663921 L116.032976,4.56748537 Z M108.834238,4.87833152 L108.834238,4.25663921 L112.434297,3.94716242 L112.434297,4.56748537 L108.834238,4.87833152 Z M132.625273,5.34391608 C132.15594,4.41274697 131.373258,3.79105466 130.277228,3.79105466 L130.121244,3.79105466 L130.121244,3.17073171 L130.277228,3.17073171 C131.529242,3.17073171 132.781257,3.94716242 133.407954,5.18780832 L132.625273,5.34391608 Z M101.790104,5.34391608 L101.790104,4.72359313 L105.232798,4.56748537 L105.232798,5.18780832 L101.790104,5.34391608 Z M94.5899855,5.80950063 L94.5899855,5.18780832 L98.1900446,4.87833152 L98.1900446,5.50002384 L94.5899855,5.80950063 Z M87.5458515,6.27508518 L87.5458515,5.65476223 L91.147291,5.34391608 L91.147291,5.96560839 L87.5458515,6.27508518 Z M80.3471136,6.58593134 L80.3471136,5.96560839 L83.9471728,5.65476223 L83.9471728,6.43119295 L80.3471136,6.58593134 Z M73.3029796,7.05151589 L73.3029796,6.43119295 L76.7470545,6.12034679 L76.7470545,6.7420391 L73.3029796,7.05151589 Z M66.2602259,7.36236205 L66.2602259,6.7420391 L69.860285,6.43119295 L69.860285,7.05151589 L66.2602259,7.36236205 Z M59.2160918,7.8279466 L59.2160918,7.20762366 L62.816151,6.8967775 L62.816151,7.51846981 L59.2160918,7.8279466 Z M52.0159736,8.29490052 L52.0159736,7.67320821 L55.6160327,7.36236205 L55.6160327,7.982685 L52.0159736,8.29490052 Z M44.97322,8.60437732 L44.97322,7.982685 L48.5732791,7.67320821 L48.5732791,8.29490052 L44.97322,8.60437732 Z M37.7731017,9.06996187 L37.7731017,8.44963892 L41.3731609,8.13879276 L41.3731609,8.76048508 L37.7731017,9.06996187 Z M30.7289677,9.38080803 L30.7289677,8.76048508 L34.3290268,8.44963892 L34.3290268,9.06996187 L30.7289677,9.38080803 Z M23.5288495,9.84639258 L23.5288495,9.22606963 L27.1289086,8.91522347 L27.1289086,9.53691579 L23.5288495,9.84639258 Z M16.4860958,10.1572387 L16.4860958,9.53691579 L20.0861549,9.22606963 L20.0861549,9.84639258 L16.4860958,10.1572387 Z M9.28597757,10.6228233 L9.28597757,10.0025003 L12.8860367,9.69165418 L12.8860367,10.3133465 L9.28597757,10.6228233 Z M133.094605,12.3317925 L132.781257,8.76048508 L133.407954,8.76048508 L133.719922,12.3317925 L133.094605,12.3317925 Z M4.9032369,14.3502384 L4.74725275,13.1082232 C4.74725275,12.1756847 5.21658561,11.399254 5.68591847,10.9336694 L6.15525133,11.399254 C5.68591847,11.8648386 5.37256976,12.4865309 5.37256976,13.1082232 L5.52855392,14.3502384 L4.9032369,14.3502384 Z M133.563938,19.3182995 L133.25059,15.7469921 L133.877287,15.7469921 L134.190636,19.3182995 L133.563938,19.3182995 Z M5.21658561,21.4928532 L5.05922106,17.9215458 L5.68591847,17.9215458 L5.84190262,21.4928532 L5.21658561,21.4928532 Z M134.033271,26.4609143 L133.719922,22.8896069 L134.34662,22.8896069 L134.659969,26.4609143 L134.033271,26.4609143 Z M5.52855392,28.4793603 L5.37256976,24.9080529 L5.99926717,24.9080529 L6.31261587,28.4793603 L5.52855392,28.4793603 Z M134.34662,33.4487907 L134.033271,29.8774833 L134.659969,29.8774833 L134.973317,33.4487907 L134.34662,33.4487907 Z M5.99926717,35.6219751 L5.84190262,32.0506677 L6.46860003,32.0506677 L6.62458418,35.6219751 L5.99926717,35.6219751 Z M134.815953,40.5900361 L134.502604,37.0200981 L135.129301,37.0200981 L135.44265,40.5900361 L134.815953,40.5900361 Z M6.31123548,42.6098515 L6.31123548,39.0385441 L6.93793289,39.0385441 L7.09529743,42.6098515 L6.31123548,42.6098515 Z M135.129301,47.5779125 L134.815953,44.0066051 L135.44265,44.0066051 L135.755999,47.5779125 L135.129301,47.5779125 Z M6.78194873,49.7510969 L6.62458418,46.1811588 L7.25128159,46.1811588 L7.40726575,49.5963585 L6.78194873,49.7510969 Z M7.09529743,56.7389733 L6.78194873,53.3224043 L7.40726575,53.3224043 L7.56463029,56.8937117 L7.09529743,56.7389733 Z M134.033271,57.0498194 L133.719922,56.4281271 C134.815953,55.9625426 135.44265,55.1861119 135.44265,54.098835 L135.285286,51.1492199 L135.911983,51.1492199 L136.067967,54.098835 C136.225332,55.3408502 135.44265,56.4281271 134.033271,57.0498194 L134.033271,57.0498194 Z M126.989137,57.3606656 L126.989137,56.7389733 L130.590577,56.5842349 L130.590577,57.2045578 L126.989137,57.3606656 Z M119.790399,57.8262501 L119.790399,57.2045578 L123.390458,57.0498194 L123.390458,57.6701424 L119.790399,57.8262501 Z M112.746265,58.1357269 L112.746265,57.515404 L116.346324,57.3606656 L116.346324,57.9809885 L112.746265,58.1357269 Z M105.546147,58.6026809 L105.546147,57.9809885 L109.146206,57.8262501 L109.146206,58.4465731 L105.546147,58.6026809 Z M98.5033933,58.9121576 L98.5033933,58.2918347 L102.103452,58.1357269 L102.103452,58.7574192 L98.5033933,58.9121576 Z M91.3032751,59.3791116 L91.3032751,58.7574192 L94.9033342,58.6026809 L94.9033342,59.2230038 L91.3032751,59.3791116 Z M84.2591411,59.6885884 L84.2591411,59.0682654 L87.8592002,58.9121576 L87.8592002,59.53385 L84.2591411,59.6885884 Z M77.0604032,59.9994345 L77.0604032,59.3791116 L80.659082,59.2230038 L80.659082,59.8446961 L77.0604032,59.9994345 Z M70.0162692,60.4650191 L70.0162692,59.8446961 L73.6163283,59.6885884 L73.6163283,60.3102807 L70.0162692,60.4650191 Z M62.816151,60.7758652 L62.816151,60.1555423 L66.4162101,59.9994345 L66.4162101,60.6211268 L62.816151,60.7758652 Z M55.7720169,61.2414498 L55.7720169,60.6211268 L59.3734564,60.4650191 L59.3734564,61.0867114 L55.7720169,61.2414498 Z M48.5732791,61.5522959 L48.5732791,60.9306036 L52.1733382,60.7758652 L52.1733382,61.3975575 L48.5732791,61.5522959 Z M41.529145,61.8631421 L41.529145,61.2414498 L45.1292041,61.0867114 L45.1292041,61.7070343 L41.529145,61.8631421 Z M34.4863913,62.3287266 L34.4863913,61.7070343 L38.0850701,61.5522959 L38.0850701,62.1739882 L34.4863913,62.3287266 Z M27.4422573,62.6395728 L27.4422573,62.0178805 L31.0423164,61.8631421 L31.0423164,62.483465 L27.4422573,62.6395728 Z M20.2421391,63.1051574 L20.2421391,62.483465 L23.8421982,62.3287266 L23.8421982,62.950419 L20.2421391,63.1051574 Z M9.44196173,63.2598958 C8.18994731,62.7943112 7.40726575,61.7070343 7.25128159,60.3102807 L7.25128159,60.1555423 L7.87659861,60.1555423 L7.87659861,60.3102807 C7.87659861,61.3975575 8.50329601,62.3287266 9.44196173,62.6395728 L9.44196173,63.2598958 Z M13.1993854,63.4146341 L13.1993854,62.7943112 L16.7994445,62.6395728 L16.7994445,63.2598958 L13.1993854,63.4146341 Z" id="Fill-8" fill="#FFFFFF"></path>
        </g>
    </g>
</svg>